<svg width="140" height="45" viewBox="0 0 140 45" fill="none" xmlns="http://www.w3.org/2000/svg">
<path d="M130.506 22.085C130.506 24.1947 130.072 28.95 125.296 32.1983C124.06 33.0355 122.858 33.6048 121.455 34.0066C120.086 34.4085 118.015 34.8103 114.675 34.8103C109.665 34.8103 106.626 33.7052 104.722 32.5667C104.088 32.1983 102.919 31.4281 101.75 30.0216C99.2447 26.9742 99.1445 23.8934 99.1445 22.3864C99.1445 16.4256 102.317 13.4452 104.255 12.1392C106.259 10.7662 109.131 9.56063 114.408 9.49365C115.477 9.49365 116.512 9.49365 117.581 9.59412C123.826 10.0964 126.732 12.5745 128.369 14.9187C129.137 16.0572 130.506 18.5018 130.506 22.085ZM121.822 22.152C121.822 19.1381 120.553 17.2293 119.685 16.4591C119.351 16.1242 118.549 15.5214 117.414 15.1196C116.813 14.9187 116.178 14.7512 114.909 14.7512C113.807 14.7512 112.905 14.8517 111.87 15.287C109.097 16.4591 107.828 19.3055 107.828 22.1855C107.828 22.6208 107.862 23.8264 108.296 25.0654C109.699 29.2849 113.506 29.5863 114.942 29.5863C115.343 29.5863 116.846 29.5863 118.115 29.017C120.754 27.8449 121.822 24.831 121.822 22.152Z" fill="#202020"/>
<path d="M96.8329 22.4533C96.8329 23.5249 96.7327 27.376 94.328 30.189C93.9272 30.6913 93.0922 31.5285 91.6895 32.3322C91.1885 32.6001 90.1197 33.1694 88.6836 33.5377C87.4812 33.8391 86.6128 34.0066 84.2415 34.0066H69.2788V10.3643H82.6718C83.6069 10.3643 84.5421 10.3977 85.4773 10.4647C90.9547 10.9335 93.3594 13.2442 94.7622 15.2869C96.7661 18.1669 96.8329 21.1808 96.8329 22.4533ZM88.5834 22.2524C88.5834 21.5157 88.4832 18.8701 86.4124 17.2627C84.6423 15.9232 82.1374 15.9902 81.5696 15.9902H77.5283V28.6485H81.8368C82.3044 28.6485 82.8054 28.615 83.3063 28.5481C86.212 28.1797 87.2474 26.8737 87.8152 25.6681C88.55 24.1612 88.5834 22.8886 88.5834 22.2524Z" fill="#202020"/>
<path d="M65.2551 34.0066H40.0723V10.3643H64.9545V15.6553H48.5222V19.5399H63.7188V24.8644H48.5222V28.6485H65.2551V34.0066Z" fill="#202020"/>
<path d="M36.647 34.0066H27.3287L22.4525 25.4002H17.977V34.0066H9.49365V10.3643H26.8611C30.034 10.3643 33.0733 10.5987 34.9771 13.6126C35.4113 14.3158 36.1794 15.7223 36.1794 17.8655C36.1794 18.9706 35.9456 22.1184 32.9731 23.7593C32.4054 24.0942 31.9712 24.2616 30.7688 24.563L36.647 34.0066ZM27.7629 17.899C27.7629 17.6981 27.7295 17.1623 27.3955 16.6934C26.8277 15.8562 25.8926 15.7223 24.9908 15.7223H17.977V20.0757H24.3228C25.926 20.0757 26.7609 19.8748 27.2953 19.2385C27.7295 18.7027 27.7629 18.1669 27.7629 17.899Z" fill="#202020"/>
</svg>
